<svg xmlns="http://www.w3.org/2000/svg" xmlns:xlink="http://www.w3.org/1999/xlink" width="74" height="74" viewBox="0 0 74 74">
  <defs>
    <style>
      .cls-1 {
        fill: url(#linear-gradient);
      }

      .cls-2 {
        fill: #fff;
      }

      .cls-3 {
        filter: url(#椭圆_2);
      }
    </style>
    <linearGradient id="linear-gradient" x1="0.5" x2="0.5" y2="1" gradientUnits="objectBoundingBox">
      <stop offset="0" stop-color="#2f7de2"/>
      <stop offset="1" stop-color="#5d99ff"/>
    </linearGradient>
    <filter id="椭圆_2" x="0" y="0" width="74" height="74" filterUnits="userSpaceOnUse">
      <feOffset dy="3" input="SourceAlpha"/>
      <feGaussianBlur stdDeviation="3" result="blur"/>
      <feFlood flood-opacity="0.161"/>
      <feComposite operator="in" in2="blur"/>
      <feComposite in="SourceGraphic"/>
    </filter>
  </defs>
  <g id="组_270" data-name="组 270" transform="translate(-271 -430)">
    <g class="cls-3" transform="matrix(1, 0, 0, 1, 271, 430)">
      <circle id="椭圆_2-2" data-name="椭圆 2" class="cls-1" cx="28" cy="28" r="28" transform="translate(9 6)"/>
    </g>
    <path id="路径_286" data-name="路径 286" class="cls-2" d="M78,64A14,14,0,1,0,92,78,14.005,14.005,0,0,0,78,64ZM76.08,82.952l.84-3.888c.14-.62.172-.872,0-.872a5.219,5.219,0,0,0-1.732.86l-.372-.68C76.6,76.7,78.652,75.72,79.532,75.72c.732,0,.852.98.492,2.472l-.972,4.088c-.172.732-.092.968.08.968a3.558,3.558,0,0,0,1.64-.92l.42.62a7.4,7.4,0,0,1-4.36,2.7c-.732,0-1.26-.5-.752-2.7ZM80.552,71.76a1.757,1.757,0,0,1-1.8,1.8,1.238,1.238,0,0,1-1.372-1.432,1.786,1.786,0,0,1,1.872-1.772C80.26,70.36,80.552,71.008,80.552,71.76Z" transform="translate(230 386)"/>
  </g>
</svg>
