<svg xmlns="http://www.w3.org/2000/svg" xmlns:xlink="http://www.w3.org/1999/xlink" width="46" height="62.75" viewBox="0 0 46 62.75">
  <defs>
    <style>
      .cls-1 {
        fill: url(#linear-gradient);
      }

      .cls-2 {
        fill: #fff;
      }

      .cls-3 {
        fill: #e2993f;
      }
    </style>
    <linearGradient id="linear-gradient" x1="0.5" x2="0.5" y2="1" gradientUnits="objectBoundingBox">
      <stop offset="0" stop-color="#e2993f"/>
      <stop offset="1" stop-color="#e2993f"/>
    </linearGradient>
  </defs>
  <g id="组_324" data-name="组 324" transform="translate(-66 -238.25)">
    <g id="组_261" data-name="组 261" transform="translate(-31.804 238.25)">
      <path id="路径_266" data-name="路径 266" class="cls-1" d="M137.073,6.981a22.451,22.451,0,0,0-32.54,0,24.418,24.418,0,0,0,0,33.667L120.8,57.5l16.27-16.852a24.418,24.418,0,0,0,0-33.667Z" transform="translate(0 0)"/>
      <path id="路径_265" data-name="路径 265" class="cls-2" d="M351.219,259.778a6.055,6.055,0,1,1-4.3,1.787,6.055,6.055,0,0,1,4.3-1.787m0-3.647a9.739,9.739,0,1,0,6.893,2.845A9.739,9.739,0,0,0,351.219,256.13Z" transform="translate(-230.416 -241.857)"/>
    </g>
    <circle id="椭圆_19" data-name="椭圆 19" class="cls-3" cx="2" cy="2" r="2" transform="translate(87 297)"/>
  </g>
</svg>
