<svg xmlns="http://www.w3.org/2000/svg" xmlns:xlink="http://www.w3.org/1999/xlink" width="74" height="74" viewBox="0 0 74 74">
  <defs>
    <style>
      .cls-1 {
        fill: url(#linear-gradient);
      }

      .cls-2 {
        fill: #fff;
      }

      .cls-3 {
        filter: url(#椭圆_2);
      }
    </style>
    <linearGradient id="linear-gradient" x1="0.5" y1="1" x2="0.5" y2="0.061" gradientUnits="objectBoundingBox">
      <stop offset="0" stop-color="#fe8080"/>
      <stop offset="1" stop-color="#ff4747"/>
    </linearGradient>
    <filter id="椭圆_2" x="0" y="0" width="74" height="74" filterUnits="userSpaceOnUse">
      <feOffset dy="3" input="SourceAlpha"/>
      <feGaussianBlur stdDeviation="3" result="blur"/>
      <feFlood flood-opacity="0.161"/>
      <feComposite operator="in" in2="blur"/>
      <feComposite in="SourceGraphic"/>
    </filter>
  </defs>
  <g id="组_272" data-name="组 272" transform="translate(-34 -430)">
    <g class="cls-3" transform="matrix(1, 0, 0, 1, 34, 430)">
      <circle id="椭圆_2-2" data-name="椭圆 2" class="cls-1" cx="28" cy="28" r="28" transform="translate(9 6)"/>
    </g>
    <path id="路径_284" data-name="路径 284" class="cls-2" d="M5.71,6.576A1.94,1.94,0,0,0,7.424,4.47V2.105A1.94,1.94,0,0,0,5.71,0,1.94,1.94,0,0,0,4,2.105V4.47A1.94,1.94,0,0,0,5.71,6.576Zm20.417-4.06H25.18L25.1,5.861a1.455,1.455,0,0,1-1.447,1.471h-.268c-.462,0-1.287,0-2.205,0h-.395A1.354,1.354,0,0,1,19.407,5.9V2.516H8.593V5.9A1.353,1.353,0,0,1,7.211,7.332H6.816c-.918,0-1.744,0-2.205,0H4.343A1.455,1.455,0,0,1,2.9,5.861V2.516H1.936a1.752,1.752,0,0,0-1.922,1.8C0,4.394,0,4.44,0,4.44S0,24.114,0,24.9a1.911,1.911,0,0,0,1.938,1.93H26.059A1.91,1.91,0,0,0,28,24.9c0-.789,0-20.463,0-20.463s0-.046-.014-.124A1.733,1.733,0,0,0,26.127,2.516ZM3.158,22.744v-2.1c0-1.073,1.934-2.159,3.582-2.756.119-.044.688-.353.37-1.188a5.264,5.264,0,0,1-1.434-3.515,2.851,2.851,0,0,1,2.922-3.1,2.857,2.857,0,0,1,2.929,3.1,5.279,5.279,0,0,1-1.432,3.506c-.307.947.191,1.171.27,1.2,1.73.573,3.673,1.65,3.673,2.756v2.1ZM23.647,21.26H17.529a1.314,1.314,0,1,1,0-2.628h6.118a1.314,1.314,0,1,1,0,2.628Zm0-5.2H17.529a1.314,1.314,0,1,1,0-2.628h6.118a1.314,1.314,0,1,1,0,2.628ZM22.3,6.576A1.94,1.94,0,0,0,24.011,4.47V2.105A1.987,1.987,0,0,0,22.234,0a1.9,1.9,0,0,0-1.649,2.105V4.47A1.94,1.94,0,0,0,22.3,6.576Z" transform="translate(57 449.734)"/>
  </g>
</svg>
