<svg xmlns="http://www.w3.org/2000/svg" xmlns:xlink="http://www.w3.org/1999/xlink" width="74" height="74" viewBox="0 0 74 74">
  <defs>
    <style>
      .cls-1 {
        fill: url(#linear-gradient);
      }

      .cls-2 {
        fill: #fff;
      }

      .cls-3 {
        fill: #fac808;
      }

      .cls-4 {
        filter: url(#椭圆_2);
      }
    </style>
    <linearGradient id="linear-gradient" x1="0.544" y1="1" x2="0.5" gradientUnits="objectBoundingBox">
      <stop offset="0" stop-color="#fd0"/>
      <stop offset="1" stop-color="#f3a915"/>
    </linearGradient>
    <filter id="椭圆_2" x="0" y="0" width="74" height="74" filterUnits="userSpaceOnUse">
      <feOffset dy="3" input="SourceAlpha"/>
      <feGaussianBlur stdDeviation="3" result="blur"/>
      <feFlood flood-opacity="0.161"/>
      <feComposite operator="in" in2="blur"/>
      <feComposite in="SourceGraphic"/>
    </filter>
  </defs>
  <g id="组_274" data-name="组 274" transform="translate(-269 -293)">
    <g class="cls-4" transform="matrix(1, 0, 0, 1, 269, 293)">
      <circle id="椭圆_2-2" data-name="椭圆 2" class="cls-1" cx="28" cy="28" r="28" transform="translate(9 6)"/>
    </g>
    <path id="路径_282" data-name="路径 282" class="cls-2" d="M128.33,25.6H110.71a3.226,3.226,0,0,0-3.19,3.266V51.271a3.209,3.209,0,0,0,3.19,3.19h17.62a3.209,3.209,0,0,0,3.19-3.19V28.866a3.226,3.226,0,0,0-3.19-3.266Zm-16.785,2.544h13.139a.924.924,0,0,1,.911.911.98.98,0,0,1-.911.911H111.545a.911.911,0,0,1,0-1.823Z" transform="translate(186.48 287.4)"/>
    <path id="路径_283" data-name="路径 283" class="cls-3" d="M79.189,96.872H74.877a1.6,1.6,0,0,0-1.232,1.322v5.619H73.03v-5.62A1.6,1.6,0,0,0,71.8,96.87H67.484a.962.962,0,0,0-.924.993v10.577a.959.959,0,0,0,.924.991h4.379a1.591,1.591,0,0,0,2.947,0h4.379a.959.959,0,0,0,.924-.991V97.863A.959.959,0,0,0,79.189,96.872Z" transform="translate(232.663 226.353)"/>
  </g>
</svg>
