<svg xmlns="http://www.w3.org/2000/svg" xmlns:xlink="http://www.w3.org/1999/xlink" width="74" height="74" viewBox="0 0 74 74">
  <defs>
    <style>
      .cls-1 {
        fill: url(#linear-gradient);
      }

      .cls-2 {
        fill: #fff;
      }

      .cls-3 {
        fill: #53c7dc;
      }

      .cls-4 {
        filter: url(#椭圆_9);
      }
    </style>
    <linearGradient id="linear-gradient" x1="0.5" y1="1" x2="0.5" gradientUnits="objectBoundingBox">
      <stop offset="0" stop-color="#60e2df"/>
      <stop offset="1" stop-color="#4bb4db"/>
    </linearGradient>
    <filter id="椭圆_9" x="0" y="0" width="74" height="74" filterUnits="userSpaceOnUse">
      <feOffset dy="3" input="SourceAlpha"/>
      <feGaussianBlur stdDeviation="3" result="blur"/>
      <feFlood flood-opacity="0.161"/>
      <feComposite operator="in" in2="blur"/>
      <feComposite in="SourceGraphic"/>
    </filter>
  </defs>
  <g id="组_273" data-name="组 273" transform="translate(-154 -293)">
    <g class="cls-4" transform="matrix(1, 0, 0, 1, 154, 293)">
      <circle id="椭圆_9-2" data-name="椭圆 9" class="cls-1" cx="28" cy="28" r="28" transform="translate(9 6)"/>
    </g>
    <path id="路径_280" data-name="路径 280" class="cls-2" d="M128.33,25.6H110.71a3.226,3.226,0,0,0-3.19,3.266V51.271a3.209,3.209,0,0,0,3.19,3.19h17.62a3.209,3.209,0,0,0,3.19-3.19V28.866a3.226,3.226,0,0,0-3.19-3.266Zm-16.785,2.544h13.139a.924.924,0,0,1,.911.911.98.98,0,0,1-.911.911H111.545a.911.911,0,0,1,0-1.823Z" transform="translate(71.48 287.4)"/>
    <path id="路径_281" data-name="路径 281" class="cls-3" d="M57.322,4.442a2.2,2.2,0,0,1-2.18-2.221,2.181,2.181,0,1,1,4.362,0,2.205,2.205,0,0,1-2.183,2.221Zm3.764,1.525L58.908,8.4a1.233,1.233,0,0,1-1.621.2L55.66,7.483,54.089,8.906l2.4,1.19a1.268,1.268,0,0,1,.653.791,1.289,1.289,0,0,1-.137,1.022l-2.235,3.684a1.245,1.245,0,0,1-1.066.6,1.221,1.221,0,0,1-.654-.191,1.287,1.287,0,0,1-.406-1.75l1.508-2.487-1.843-.914L50.819,13.2a1.271,1.271,0,0,1-.424.409l-3.842,2.408a1.223,1.223,0,0,1-.948.127,1.243,1.243,0,0,1-.76-.592,1.286,1.286,0,0,1,.457-1.738l3.582-2.255,1.775-2.71.017-.03a1.271,1.271,0,0,1,.355-.548l2.477-2.243L52.4,5.275l-2.327.678a1.252,1.252,0,0,1-1.546-.872,1.278,1.278,0,0,1,.857-1.574l2.883-.84a1.23,1.23,0,0,1,1.034.162l2.947,1.987a1.132,1.132,0,0,1,.106.081h0l1.437.976,1.453-1.62a1.232,1.232,0,0,1,1.767-.082,1.289,1.289,0,0,1,.08,1.8Z" transform="translate(136.998 320.902)"/>
  </g>
</svg>
