<svg xmlns="http://www.w3.org/2000/svg" xmlns:xlink="http://www.w3.org/1999/xlink" width="74" height="74" viewBox="0 0 74 74">
  <defs>
    <style>
      .cls-1 {
        fill: url(#linear-gradient);
      }

      .cls-2 {
        fill: #fff;
      }

      .cls-3 {
        filter: url(#椭圆_2);
      }
    </style>
    <linearGradient id="linear-gradient" x1="0.5" x2="0.5" y2="1" gradientUnits="objectBoundingBox">
      <stop offset="0" stop-color="#7ec68b"/>
      <stop offset="1" stop-color="#8fd9b9"/>
    </linearGradient>
    <filter id="椭圆_2" x="0" y="0" width="74" height="74" filterUnits="userSpaceOnUse">
      <feOffset dy="3" input="SourceAlpha"/>
      <feGaussianBlur stdDeviation="3" result="blur"/>
      <feFlood flood-opacity="0.161"/>
      <feComposite operator="in" in2="blur"/>
      <feComposite in="SourceGraphic"/>
    </filter>
  </defs>
  <g id="组_276" data-name="组 276" transform="translate(-34 -293)">
    <g class="cls-3" transform="matrix(1, 0, 0, 1, 34, 293)">
      <circle id="椭圆_2-2" data-name="椭圆 2" class="cls-1" cx="28" cy="28" r="28" transform="translate(9 6)"/>
    </g>
    <path id="路径_272" data-name="路径 272" class="cls-2" d="M123.395,6.222a10.889,10.889,0,1,0,10.961,10.889A10.925,10.925,0,0,0,123.395,6.222Zm5.59,9.893-2.13,2.131.5,2.956c.172,1-.391,1.416-1.3.949l-2.662-1.4-2.646,1.4c-.877.467-1.472,0-1.3-.949l.5-2.956-2.13-2.084c-.72-.7-.517-1.384.485-1.556l2.975-.436,1.315-2.66c.454-.887,1.159-.918,1.566,0l1.331,2.691,2.959.436c.987.14,1.221.809.485,1.556ZM133.557,0h-6.717a.766.766,0,0,0-.736.591l-2.067,4.076a12.7,12.7,0,0,1,7.109,2.8l3.132-6.222a.819.819,0,0,0,0-.467A.78.78,0,0,0,133.494,0ZM122.6,4.667l-2-4.076A.766.766,0,0,0,119.856,0h-6.717a.773.773,0,0,0-.783.778.821.821,0,0,0,.157.451l3.132,6.222a12.7,12.7,0,0,1,7.015-2.784Z" transform="translate(-52.355 314)"/>
  </g>
</svg>
