<svg xmlns="http://www.w3.org/2000/svg" width="22" height="22" viewBox="0 0 22 22">
  <defs>
    <style>
      .cls-1 {
        fill: #f33;
      }

      .cls-2 {
        fill: #fff;
        font-size: 10px;
        font-family: PingFang SC Bold, PingFang SC;
      }
    </style>
  </defs>
  <g id="组_265" data-name="组 265" transform="translate(-331 -89)">
    <path id="路径_269" data-name="路径 269" class="cls-1" d="M16.446,15.3c4.879-.848,7.423-6.563,7.423-11.785h-4C20.1,1.826,20.25.471,20.25,0H5.551c.082.9.193,2.137.344,3.51H1.869c0,5.293,2.579,11.111,7.561,11.91a4.365,4.365,0,0,0,2.049,1.664v1.171H8.633L6.5,22H19.3l-2.134-3.745H14.323V17.084A5.371,5.371,0,0,0,16.446,15.3Zm1.433-2.189a46.928,46.928,0,0,0,1.78-8.192h1.482c0,4.4-1.928,7.687-3.338,8.358.025-.056.052-.111.076-.166ZM4.6,4.915H6.06c.392,3.138,1,6.609,1.928,8.363C6.559,12.62,4.6,9.316,4.6,4.915Z" transform="translate(329.131 89)"/>
    <text id="_3" data-name="3" class="cls-2" transform="translate(339 100)"><tspan x="0" y="0">3</tspan></text>
  </g>
</svg>
