<?xml version="1.0" encoding="utf-8"?>
<!-- Generator: Adobe Illustrator 24.3.0, SVG Export Plug-In . SVG Version: 6.00 Build 0)  -->
<svg version="1.1" id="图层_1" xmlns="http://www.w3.org/2000/svg" xmlns:xlink="http://www.w3.org/1999/xlink" x="0px" y="0px"
	 viewBox="0 0 108 108" style="enable-background:new 0 0 108 108;" xml:space="preserve">
<style type="text/css">
	.st0{fill:url(#椭圆_5-2_2_);}
	.st1{fill:#FFFFFF;}
</style>
<g id="组_259" transform="translate(-212 -501)">
	<g transform="matrix(1, 0, 0, 1, 212, 501)">
		
			<linearGradient id="椭圆_5-2_2_" gradientUnits="userSpaceOnUse" x1="-620.5244" y1="435.3474" x2="-620.5244" y2="434.3474" gradientTransform="matrix(90 0 0 -90 55901 39187)">
			<stop  offset="0" style="stop-color:#D18F4F"/>
			<stop  offset="1" style="stop-color:#B5702B"/>
		</linearGradient>
		<circle id="椭圆_5-2" class="st0" cx="53.8" cy="50.7" r="45"/>
	</g>
	<path id="路径_347" class="st1" d="M258.8,574.5c-1.4,0.5-2.8,0.8-4.3,1.1l0.1,0.8c1.4-0.2,2.8-0.6,4.2-1.1V574.5z M256.5,565.9
		c-0.4,1.3-1,2.6-1.7,3.8c-0.1,0.1-0.2,0.3-0.4,0.3l0.2,0.8c0.7-0.1,1.4-0.2,2.1-0.3c-0.5,0.9-1,1.7-1.7,2.4
		c-0.1,0.1-0.3,0.2-0.4,0.3l0.2,0.8c1.3-0.2,2.5-0.5,3.7-0.9v-0.8c-0.9,0.3-1.8,0.5-2.7,0.7c1-1.4,2-2.8,2.7-4.3l-0.8-0.3
		c-0.2,0.5-0.5,0.9-0.7,1.3c-0.6,0.1-1.1,0.2-1.7,0.3c0.7-1.2,1.4-2.4,1.9-3.7L256.5,565.9z M258.6,567.4v0.8h2.9v1.8H259v0.8h5.9
		V570h-2.5v-1.8h2.9v-0.8h-2.9V566h-0.9v1.5H258.6z M264.5,572.1h-5.1v4.8h0.9v-0.6h3.4v0.6h0.8L264.5,572.1z M260.2,575.5v-2.6h3.4
		v2.6H260.2z M266.7,567.2v0.8h4.7v1.2h-3.8v3.4h3c-1.1,1.5-2.6,2.6-4.3,3.2l0.5,0.8c1.9-0.8,3.5-2.3,4.6-4h0v4.4h0.9v-4.4h0
		c1.1,1.7,2.7,3.1,4.5,4l0.6-0.7c-1.7-0.7-3.2-1.8-4.4-3.3h3v-3.4h-3.8V568h4.7v-0.8h-4.7V566h-0.9v1.2H266.7z M275.2,571.8h-2.9
		V570h2.9L275.2,571.8z M271.4,571.8h-2.9V570h2.9L271.4,571.8z"/>
	<path id="路径_262" class="st1" d="M274.9,542.2C274.9,542.1,274.9,542.1,274.9,542.2L274.9,542.2c2.3-3.3,2.5-7.5,0.6-10.9
		c-2-3.5-5.7-5.6-9.7-5.6c-5.9-0.1-10.9,4.6-11,10.5c0,2.1,0.6,4.1,1.9,5.8l0,0c0,0,0,0,0,0.1l8.1,11.1c0,0,0,0,0,0c0,0,0,0,0,0v0
		c0.2,0.3,0.6,0.5,1,0.5c0.4,0,0.7-0.2,1-0.5l0,0L274.9,542.2z M265.8,528.2c4.5-0.1,8.3,3.5,8.4,8.1c-0.2,4.7-4.2,8.3-8.8,8
		c-4.4-0.2-7.9-3.7-8-8C257.5,531.7,261.3,528.1,265.8,528.2z M260.2,540.7c-0.1-0.4,0.1-0.6,0.5-0.7c1.1-0.3,2.1-0.6,3.1-1.1
		c0.3-0.1,0.6,0,0.8,0.2c0.3,0.5,0.2,0.8-0.2,1c-0.8,0.3-1.9,0.7-3.1,1.1C260.6,541.2,260.3,541.1,260.2,540.7 M262.1,533.4h0.3
		c0.1-0.2,0.3-0.3,0.4-0.5c0.2-0.2,0.3-0.3,0.4-0.5c0.3-0.4,0.8-0.4,1.1-0.2c0.3,0.2,0.3,0.6,0.1,0.9c0,0,0,0,0,0l-0.6,0.7
		c-0.8,1.1-1.4,1.8-1.7,2.2c-0.1,0.3,0,0.4,0.2,0.4c0.2,0,0.3,0,0.5,0c0.1,0,0.2-0.1,0.3-0.1c0.3-0.1,0.6,0.1,0.7,0.4
		c0.1,0.3-0.1,0.7-0.4,0.8c0,0-0.1,0-0.1,0c-0.4,0.1-0.8,0.2-1.2,0.3c-0.4,0-0.7,0-1.1,0c-0.6,0.1-0.9-0.1-1-0.4
		c-0.1-0.2-0.1-0.5,0.1-1c0.2-0.4,0.5-0.8,0.8-1.2c0.2-0.3,0.4-0.6,0.5-0.7h-0.9c-0.5,0-0.8-0.2-0.8-0.5c0-0.4,0.1-0.8,0.3-1.1
		c0.1-0.1,0.4-0.5,0.8-1.1s0.7-1,0.8-1.2c0.2-0.4,0.7-0.5,1.1-0.3c0.4,0.2,0.5,0.5,0.3,0.8c-0.4,0.7-0.8,1.3-1.3,1.8
		c-0.1,0.1-0.2,0.2-0.1,0.3C261.8,533.4,261.9,533.4,262.1,533.4L262.1,533.4z M267.9,531h2.5c0.7,0.1,0.9,0.4,0.7,1.1
		c-0.3,1.1-0.9,2-1.6,2.8c0.6,0.5,1.2,0.8,1.8,1.1c0.5,0.3,0.7,0.6,0.5,1c-0.2,0.4-0.6,0.5-1.3,0.1c-0.8-0.3-1.5-0.8-2.2-1.3
		c-0.8,0.6-1.7,1.2-2.7,1.5c-0.6,0.2-0.9,0.1-1.1-0.3c-0.2-0.4,0-0.7,0.5-0.9c0.8-0.3,1.6-0.7,2.3-1.2c-0.4-0.3-0.7-0.7-0.9-1.1
		c-0.1,0.1-0.1,0.2-0.2,0.3l-0.3,0.4c-0.2,0.3-0.6,0.4-1,0.2c-0.4-0.2-0.4-0.5-0.1-1c0.7-0.8,1.3-1.8,1.6-2.8
		c0.1-0.4,0.4-0.6,0.8-0.5c0,0,0,0,0,0C267.7,530.4,267.9,530.7,267.9,531L267.9,531z M270.2,541.5c-1.5-0.3-3-0.6-4.5-0.8
		c-0.5-0.1-0.7-0.4-0.6-0.8c0-0.4,0.3-0.6,0.9-0.5c2.2,0.4,3.7,0.6,4.4,0.8c0.4,0,0.7,0.3,0.6,0.7c0,0,0,0,0,0.1
		C271,541.3,270.7,541.6,270.2,541.5C270.3,541.5,270.2,541.5,270.2,541.5L270.2,541.5z M269,538.9c-0.6-0.2-1.1-0.4-1.7-0.6
		c-0.1,0-0.1,0-0.2-0.1c-0.4-0.1-0.6-0.3-0.5-0.7c0.1-0.3,0.3-0.5,0.7-0.5c0.7,0.2,1.4,0.4,2.1,0.7c0.5,0.2,0.6,0.5,0.5,0.8
		C269.8,539,269.5,539.1,269,538.9L269,538.9z M268.7,532.6H267c-0.1,0.1-0.1,0.2-0.1,0.3c0.3,0.5,0.7,1,1.2,1.4
		c0.4-0.4,0.7-0.9,1-1.4C269,532.7,268.9,532.6,268.7,532.6L268.7,532.6z"/>
</g>
</svg>
