<svg xmlns="http://www.w3.org/2000/svg" xmlns:xlink="http://www.w3.org/1999/xlink" width="74" height="74" viewBox="0 0 74 74">
  <defs>
    <style>
      .cls-1 {
        fill: url(#linear-gradient);
      }

      .cls-2 {
        fill: #fff;
      }

      .cls-3 {
        filter: url(#椭圆_2);
      }
    </style>
    <linearGradient id="linear-gradient" x1="0.5" x2="0.5" y2="1" gradientUnits="objectBoundingBox">
      <stop offset="0" stop-color="#c798e7"/>
      <stop offset="1" stop-color="#b470e8"/>
    </linearGradient>
    <filter id="椭圆_2" x="0" y="0" width="74" height="74" filterUnits="userSpaceOnUse">
      <feOffset dy="3" input="SourceAlpha"/>
      <feGaussianBlur stdDeviation="3" result="blur"/>
      <feFlood flood-opacity="0.161"/>
      <feComposite operator="in" in2="blur"/>
      <feComposite in="SourceGraphic"/>
    </filter>
  </defs>
  <g id="组_271" data-name="组 271" transform="translate(-158 -430)">
    <g class="cls-3" transform="matrix(1, 0, 0, 1, 158, 430)">
      <circle id="椭圆_2-2" data-name="椭圆 2" class="cls-1" cx="28" cy="28" r="28" transform="translate(9 6)"/>
    </g>
    <path id="路径_285" data-name="路径 285" class="cls-2" d="M44.861,57.618h13.2V44.509h-13.2V57.618Zm3.3-9.812h6.6v6.6h-6.6Zm11.5-3.3V57.7h13.2V44.509h-13.2Zm9.9,9.812h-6.6V47.807h6.6ZM49.852,52.712h3.3v-3.3h-3.3v3.3Zm-4.99,19.709h13.2V59.311h-13.2Zm3.3-9.812h6.6v6.6h-6.6v-6.6Zm19.8-13.2h-3.3v3.3h3.3ZM59.665,72.421h3.3v-3.3h-3.3Zm3.3-9.812v6.6h3.3v-6.6Zm6.6,6.512h-3.3v3.3h6.6v-6.6h-3.3v3.3Zm0-6.512h3.3v-3.3h-3.3Zm-9.9-3.3v3.3h3.3v-3.3Zm-9.813,8.2h3.3v-3.3h-3.3v3.3Z" transform="translate(136.139 405.491)"/>
  </g>
</svg>
